<svg width="103" height="12" viewBox="0 0 103 12" fill="none" xmlns="http://www.w3.org/2000/svg">
<path d="M3.92838 7.136L5.23038 3.468H5.25838L6.51838 7.136H3.92838ZM4.13838 1.004L0.358383 11H2.57038L3.35438 8.774H7.09238L7.84838 11H10.1304L6.39238 1.004H4.13838ZM10.9924 1.004V11H13.0504V3.986H13.0784L15.5284 11H17.2224L19.6724 3.916H19.7004V11H21.7584V1.004H18.6644L16.4524 7.878H16.4244L14.0864 1.004H10.9924ZM23.6935 1.004V11H31.2815V9.152H25.8915V6.702H30.7355V4.994H25.8915V2.852H31.1695V1.004H23.6935ZM34.9697 5.526V2.712H37.3777C37.8817 2.712 38.2597 2.824 38.5117 3.048C38.7637 3.26267 38.8897 3.61267 38.8897 4.098C38.8897 4.602 38.7637 4.966 38.5117 5.19C38.2597 5.414 37.8817 5.526 37.3777 5.526H34.9697ZM32.7717 1.004V11H34.9697V7.094H37.1677C37.7183 7.094 38.115 7.21533 38.3577 7.458C38.6003 7.70067 38.759 8.08333 38.8337 8.606C38.8897 9.00733 38.9317 9.42733 38.9597 9.866C38.9877 10.3047 39.0623 10.6827 39.1837 11H41.3817C41.279 10.86 41.1997 10.692 41.1437 10.496C41.097 10.2907 41.0597 10.076 41.0317 9.852C41.013 9.628 40.999 9.40867 40.9897 9.194C40.9803 8.97933 40.971 8.79267 40.9617 8.634C40.943 8.382 40.9057 8.13 40.8497 7.878C40.803 7.626 40.7237 7.39733 40.6117 7.192C40.4997 6.97733 40.355 6.79533 40.1777 6.646C40.0003 6.48733 39.7763 6.37067 39.5057 6.296V6.268C40.0657 6.044 40.467 5.71733 40.7097 5.288C40.9617 4.85867 41.0877 4.35 41.0877 3.762C41.0877 3.37933 41.0177 3.02467 40.8777 2.698C40.747 2.362 40.551 2.068 40.2897 1.816C40.0377 1.564 39.7297 1.368 39.3657 1.228C39.011 1.07867 38.6097 1.004 38.1617 1.004H32.7717ZM42.8752 1.004V11H45.0732V1.004H42.8752ZM53.6681 4.364H55.7961C55.7308 3.78533 55.5721 3.272 55.3201 2.824C55.0681 2.376 54.7461 2.00267 54.3541 1.704C53.9714 1.396 53.5328 1.16267 53.0381 1.004C52.5528 0.845333 52.0348 0.766 51.4841 0.766C50.7188 0.766 50.0281 0.901333 49.4121 1.172C48.8054 1.44267 48.2921 1.816 47.8721 2.292C47.4521 2.768 47.1301 3.328 46.9061 3.972C46.6821 4.60667 46.5701 5.29733 46.5701 6.044C46.5701 6.772 46.6821 7.45333 46.9061 8.088C47.1301 8.71333 47.4521 9.25933 47.8721 9.726C48.2921 10.1927 48.8054 10.5613 49.4121 10.832C50.0281 11.0933 50.7188 11.224 51.4841 11.224C52.1001 11.224 52.6648 11.1307 53.1781 10.944C53.6914 10.7573 54.1394 10.4867 54.5221 10.132C54.9048 9.77733 55.2128 9.348 55.4461 8.844C55.6794 8.34 55.8241 7.77533 55.8801 7.15H53.7521C53.6681 7.822 53.4348 8.36333 53.0521 8.774C52.6788 9.18467 52.1561 9.39 51.4841 9.39C50.9894 9.39 50.5694 9.29667 50.2241 9.11C49.8788 8.914 49.5988 8.65733 49.3841 8.34C49.1694 8.02267 49.0108 7.668 48.9081 7.276C48.8148 6.87467 48.7681 6.464 48.7681 6.044C48.7681 5.60533 48.8148 5.18067 48.9081 4.77C49.0108 4.35933 49.1694 3.99533 49.3841 3.678C49.5988 3.35133 49.8788 3.09467 50.2241 2.908C50.5694 2.712 50.9894 2.614 51.4841 2.614C51.7548 2.614 52.0114 2.66067 52.2541 2.754C52.5061 2.838 52.7301 2.95933 52.9261 3.118C53.1221 3.27667 53.2854 3.46333 53.4161 3.678C53.5468 3.88333 53.6308 4.112 53.6681 4.364ZM59.901 7.136L61.203 3.468H61.231L62.491 7.136H59.901ZM60.111 1.004L56.331 11H58.543L59.327 8.774H63.065L63.821 11H66.103L62.365 1.004H60.111Z" fill="black"/>
<path d="M78.0855 9.866L78.3095 11H79.7095V5.596H75.5095V7.234H77.7215C77.6562 7.934 77.4228 8.47067 77.0215 8.844C76.6295 9.208 76.0695 9.39 75.3415 9.39C74.8468 9.39 74.4268 9.29667 74.0815 9.11C73.7362 8.914 73.4562 8.65733 73.2415 8.34C73.0268 8.02267 72.8682 7.668 72.7655 7.276C72.6722 6.87467 72.6255 6.464 72.6255 6.044C72.6255 5.60533 72.6722 5.18067 72.7655 4.77C72.8682 4.35933 73.0268 3.99533 73.2415 3.678C73.4562 3.35133 73.7362 3.09467 74.0815 2.908C74.4268 2.712 74.8468 2.614 75.3415 2.614C75.8735 2.614 76.3262 2.754 76.6995 3.034C77.0728 3.314 77.3248 3.734 77.4555 4.294H79.5555C79.4995 3.72467 79.3455 3.22067 79.0935 2.782C78.8415 2.34333 78.5195 1.97467 78.1275 1.676C77.7448 1.37733 77.3108 1.15333 76.8255 1.004C76.3495 0.845333 75.8548 0.766 75.3415 0.766C74.5762 0.766 73.8855 0.901333 73.2695 1.172C72.6628 1.44267 72.1495 1.816 71.7295 2.292C71.3095 2.768 70.9875 3.328 70.7635 3.972C70.5395 4.60667 70.4275 5.29733 70.4275 6.044C70.4275 6.772 70.5395 7.45333 70.7635 8.088C70.9875 8.71333 71.3095 9.25933 71.7295 9.726C72.1495 10.1927 72.6628 10.5613 73.2695 10.832C73.8855 11.0933 74.5762 11.224 75.3415 11.224C75.8268 11.224 76.3075 11.126 76.7835 10.93C77.2595 10.7247 77.6935 10.37 78.0855 9.866ZM81.4846 1.004V11H83.6826V1.004H81.4846ZM90.2615 11L93.5795 1.004H91.3115L89.0575 8.032H89.0295L86.8035 1.004H84.5495L87.7835 11H90.2615ZM95.9298 7.682H93.8018C93.7925 8.298 93.9045 8.83 94.1378 9.278C94.3712 9.726 94.6838 10.0947 95.0758 10.384C95.4772 10.6733 95.9345 10.8833 96.4478 11.014C96.9705 11.154 97.5072 11.224 98.0578 11.224C98.7392 11.224 99.3365 11.1447 99.8498 10.986C100.372 10.8273 100.806 10.608 101.152 10.328C101.506 10.0387 101.772 9.698 101.95 9.306C102.127 8.914 102.216 8.48933 102.216 8.032C102.216 7.472 102.094 7.01467 101.852 6.66C101.618 6.296 101.338 6.00667 101.012 5.792C100.685 5.57733 100.354 5.42333 100.018 5.33C99.6912 5.22733 99.4345 5.15733 99.2478 5.12C98.6225 4.96133 98.1138 4.83067 97.7218 4.728C97.3392 4.62533 97.0358 4.52267 96.8118 4.42C96.5972 4.31733 96.4525 4.20533 96.3778 4.084C96.3032 3.96267 96.2658 3.804 96.2658 3.608C96.2658 3.39333 96.3125 3.216 96.4058 3.076C96.4992 2.936 96.6158 2.81933 96.7558 2.726C96.9052 2.63267 97.0685 2.56733 97.2458 2.53C97.4232 2.49267 97.6005 2.474 97.7778 2.474C98.0485 2.474 98.2958 2.49733 98.5198 2.544C98.7532 2.59067 98.9585 2.67 99.1358 2.782C99.3132 2.894 99.4532 3.048 99.5558 3.244C99.6678 3.44 99.7332 3.68733 99.7518 3.986H101.88C101.88 3.40733 101.768 2.91733 101.544 2.516C101.329 2.10533 101.035 1.76933 100.662 1.508C100.288 1.24667 99.8592 1.06 99.3738 0.947999C98.8978 0.826666 98.3985 0.766 97.8758 0.766C97.4278 0.766 96.9798 0.826666 96.5318 0.947999C96.0838 1.06933 95.6825 1.256 95.3278 1.508C94.9732 1.76 94.6838 2.07733 94.4598 2.46C94.2452 2.83333 94.1378 3.27667 94.1378 3.79C94.1378 4.24733 94.2218 4.63933 94.3898 4.966C94.5672 5.28333 94.7958 5.54933 95.0758 5.764C95.3558 5.97867 95.6732 6.156 96.0278 6.296C96.3825 6.42667 96.7465 6.53867 97.1198 6.632C97.4838 6.73467 97.8432 6.828 98.1978 6.912C98.5525 6.996 98.8698 7.094 99.1498 7.206C99.4298 7.318 99.6538 7.458 99.8218 7.626C99.9992 7.794 100.088 8.01333 100.088 8.284C100.088 8.536 100.022 8.746 99.8918 8.914C99.7612 9.07267 99.5978 9.19867 99.4018 9.292C99.2058 9.38533 98.9958 9.45067 98.7718 9.488C98.5478 9.516 98.3378 9.53 98.1418 9.53C97.8525 9.53 97.5725 9.49733 97.3018 9.432C97.0312 9.35733 96.7932 9.25 96.5878 9.11C96.3918 8.96067 96.2332 8.76933 96.1118 8.536C95.9905 8.30267 95.9298 8.018 95.9298 7.682Z" fill="#FF0000"/>
</svg>
