<svg xmlns="http://www.w3.org/2000/svg" viewBox="0 0 171.92 126.46"><defs><style>.cls-1{font-size:106px;font-family:HelveticaNeue-CondensedBold, Helvetica Neue;font-weight:700;letter-spacing:0.01em;}.cls-2{letter-spacing:-0.08em;}.cls-3{letter-spacing:-0.03em;}</style></defs><title>Asset 3</title><g id="Layer_2" data-name="Layer 2"><g id="Layer_1-2" data-name="Layer 1"><path d="M156,15.61c-.28,0-.5-.12-.5-.26s.22-.26.5-.26h2.77c.28,0,.5.12.5.26s-.22.26-.5.26h-.57a.5.5,0,0,0-.5.5V19.3c0,.27-.14.5-.31.5s-.31-.23-.31-.5V16.11a.5.5,0,0,0-.5-.5Z"/><path d="M160.28,15.09a.73.73,0,0,1,.61.47l1.14,3c.1.26.25.26.35,0l1.14-3a.73.73,0,0,1,.61-.47.47.47,0,0,1,.43.5V19.3c0,.27-.13.5-.3.5s-.3-.23-.3-.5V16.38c0-.28,0-.5,0-.5l-.18.47-1.12,3c-.1.26-.3.47-.44.47s-.35-.21-.44-.47l-1.12-3-.18-.47s0,.22,0,.5V19.3c0,.27-.13.5-.3.5s-.3-.23-.3-.5V15.59A.47.47,0,0,1,160.28,15.09Z"/><text class="cls-1" transform="translate(0 90.84)">GI<tspan class="cls-2" x="88.4" y="0">V</tspan><tspan class="cls-3" x="134.72" y="0">.</tspan></text><rect x="28.92" y="49.47" width="40" height="12"/></g></g></svg>